# xmcd
#
# Track frame offsets: 
#        182
#        19280
#        38720
#        59360
#        78735
#        102337
#        121830
#        141500
#        162712
#        182285
#        204522
#        209305
#        231185
#        251142
#        271000
#
# Disc length: 3883 seconds
#
# Revision: 0
# Processed by: cddbd v1.5.2PL0 Copyright (c) Steve Scherf et al.
# Submitted via: ExactAudioCopy v0.99pb5
#
DISCID=d70f290f
DTITLE=Ali - Bitter Honey
DYEAR=1998
DGENRE=R&B
TTITLE0=Love Letters
TTITLE1=So In Love
TTITLE2=Whatever You Want
TTITLE3=In And Out Of My Life
TTITLE4=Tomorrow
TTITLE5=I Wish You Better
TTITLE6=Sure
TTITLE7=Feelin' You
TTITLE8=Maybe Today
TTITLE9=Crucial
TTITLE10=Since Loving You Is Crucial (Reprise)
TTITLE11=It Only Takes A Minute (Featuring Wayne Hector)
TTITLE12=Bitter Honey
TTITLE13=Crazy Don't
TTITLE14=So In Love (Live Remix)
EXTD=
EXTT0=
EXTT1=
EXTT2=
EXTT3=
EXTT4=
EXTT5=
EXTT6=
EXTT7=
EXTT8=
EXTT9=
EXTT10=
EXTT11=
EXTT12=
EXTT13=
EXTT14=
PLAYORDER=
